<?xml version="1.0" encoding="iso-8859-1"?>
<!-- Generator: Adobe Illustrator 19.0.0, SVG Export Plug-In . SVG Version: 6.00 Build 0)  -->
<svg version="1.1" id="Capa_1" xmlns="http://www.w3.org/2000/svg" xmlns:xlink="http://www.w3.org/1999/xlink" x="0px" y="0px"
	 viewBox="0 0 490.318 490.318" style="enable-background:new 0 0 490.318 490.318;" xml:space="preserve">
<path style="fill:#FFFFFF;" d="M108.719,130.878h270.48v34.64h-270.48L108.719,130.878z"/>
<path style="fill:#FCC00F;" d="M245.199,347.998l-117.68,59.12v-241.84h235.36v241.6L245.199,347.998z M233.999,281.198
	c-6.32,26.56-23.52,45.84-43.84,49.04h113.04c-20.32-3.36-37.52-22.64-43.84-49.28l-2.96-12.64l12.64,2.96
	c26.56,6.32,45.84,23.52,49.04,43.84v-113.04c-3.44,20.32-22.64,37.52-49.28,43.84l-12.64,2.96l2.96-12.64
	c6.32-26.56,23.52-45.84,43.84-49.04h-113.04c20.32,3.36,37.52,22.64,43.84,49.28l3.44,12.72l-12.64-2.96
	c-26.56-6.32-45.84-23.52-49.04-43.84v113.04c3.36-20.32,22.64-37.52,49.28-43.84l12.4-3.04L233.999,281.198z"/>
<path style="fill:#B7AE9F;" d="M225.919,482.638v-124.96l19.28-9.68l19.28,9.68v124.96H225.919z"/>
<path style="fill:#F09052;" d="M201.519,330.478l13.52-13.68c12.151-13.02,19.538-29.768,20.96-47.52
	c-17.64,1.492-34.264,8.875-47.2,20.96l-13.68,13.6v-90.08l13.6,13.52c12.968,12.072,29.622,19.427,47.28,20.88
	c-1.47-17.63-8.824-34.253-20.88-47.2l-13.52-13.68h90.24l-13.52,13.68c-12.072,12.968-19.427,29.622-20.88,47.28
	c17.656-1.459,34.309-8.813,47.28-20.88l13.6-13.52v90.24l-13.68-13.6c-12.92-12.194-29.581-19.665-47.28-21.2
	c1.47,17.63,8.824,34.253,20.88,47.2l13.52,13.68L201.519,330.478z"/>
<circle style="fill:#FCC00F;" cx="245.199" cy="44.718" r="36.8"/>
<path style="fill:#B7AE9F;" d="M225.919,130.878v-53.6l10,2.64c6.049,1.654,12.431,1.654,18.48,0l10.08-2.64v53.6H225.919z"/>
<g>
	<path style="fill:#3A302B;" d="M200.399,44.718c0.005,13.896,6.482,26.998,17.52,35.44v42.72h-99.04
		c-10.002-0.406-18.447,7.359-18.88,17.36v16c0.602,9.874,8.996,17.451,18.88,17.04h0.64v233.6c0.013,4.418,3.606,7.989,8.024,7.976
		c1.242-0.004,2.466-0.297,3.576-0.856l86.8-43.68v112c0,4.418,3.582,8,8,8h38.48c4.418,0,8-3.582,8-8v-112l86.8,43.68
		c1.115,0.571,2.348,0.872,3.6,0.88c4.418,0,8-3.582,8-8v-233.6h0.64c10.002,0.406,18.447-7.359,18.88-17.36v-16
		c-0.433-10.001-8.878-17.766-18.88-17.36h-98.96v-42.4c19.571-15.066,23.222-43.145,8.156-62.716S237.489-5.78,217.919,9.287
		c-10.996,8.465-17.439,21.555-17.44,35.431H200.399z M256.399,474.638h-22.48v-112l11.28-5.36l11.28,5.68L256.399,474.638z
		 M354.799,394.158l-106-53.28c-2.264-1.141-4.936-1.141-7.2,0l-106.08,53.28v-220.88h219.36L354.799,394.158z M371.519,138.878
		c1.92,0,2.88,1.04,2.88,1.36v16c0,0-1.2,1.04-2.88,1.04h-252.64c-1.92,0-2.88-1.04-2.88-1.36v-16c0,0,0.96-1.36,2.88-1.36h252.64
		V138.878z M233.919,122.878v-34.88c7.361,1.995,15.12,1.995,22.48,0v34.88H233.919z M245.199,15.918
		c15.906,0,28.8,12.894,28.8,28.8s-12.894,28.8-28.8,28.8c-15.906,0-28.8-12.894-28.8-28.8S229.293,15.918,245.199,15.918
		L245.199,15.918z"/>
	<path style="fill:#3A302B;" d="M175.279,323.438c3.963,0.051,7.366-2.808,8-6.72c2.72-17.36,19.84-32,43.04-37.28
		c-5.52,23.2-19.92,40-37.28,43.04c-3.912,0.634-6.771,4.037-6.72,8c0,4.418,3.582,8,8,8h112.88c4.418,0,8-3.582,8-8
		c0.051-3.963-2.808-7.366-6.72-8c-17.36-2.72-32-19.84-37.28-43.04c23.2,5.52,40,19.92,43.04,37.28c0.634,3.912,4.037,6.771,8,6.72
		c4.418,0,8-3.582,8-8v-113.12c0-4.418-3.582-8-8-8c-3.963-0.051-7.366,2.808-8,6.72c-2.72,17.36-19.84,32-43.04,37.28
		c5.52-23.12,19.92-40,37.28-43.04c3.912-0.634,6.771-4.037,6.72-8c0-4.418-3.582-8-8-8h-113.04c-4.418,0-8,3.582-8,8
		c-0.051,3.963,2.808,7.366,6.72,8c17.36,2.72,32,19.84,37.28,43.04c-23.2-5.52-40-19.92-43.04-37.28
		c-0.634-3.912-4.037-6.771-8-6.72c-4.418,0-8,3.582-8,8v113.12c-0.001,4.418,3.58,8.001,7.998,8.002
		C175.171,323.439,175.225,323.439,175.279,323.438L175.279,323.438z M183.279,232.958c14.252,13.329,32.561,21.497,52,23.2
		c4.394,0.467,8.333-2.717,8.8-7.111c0.06-0.562,0.06-1.128,0-1.689c-1.703-19.439-9.871-37.748-23.2-52h51.84
		c-13.329,14.252-21.497,32.561-23.2,52c-0.467,4.394,2.717,8.333,7.111,8.8c0.562,0.06,1.128,0.06,1.689,0
		c19.439-1.703,37.748-9.871,52-23.2v51.84c-14.249-13.334-32.559-21.503-52-23.2c-4.394-0.467-8.333,2.717-8.8,7.111
		c-0.06,0.562-0.06,1.128,0,1.689c1.703,19.439,9.871,37.748,23.2,52h-51.92c13.329-14.252,21.497-32.561,23.2-52
		c0.467-4.394-2.717-8.333-7.111-8.8c-0.562-0.06-1.128-0.06-1.689,0c-19.441,1.697-37.751,9.866-52,23.2L183.279,232.958z"/>
</g>
<g>
</g>
<g>
</g>
<g>
</g>
<g>
</g>
<g>
</g>
<g>
</g>
<g>
</g>
<g>
</g>
<g>
</g>
<g>
</g>
<g>
</g>
<g>
</g>
<g>
</g>
<g>
</g>
<g>
</g>
</svg>
