<?xml version="1.0" encoding="iso-8859-1"?>
<!-- Generator: Adobe Illustrator 19.0.0, SVG Export Plug-In . SVG Version: 6.00 Build 0)  -->
<svg version="1.1" id="Capa_1" xmlns="http://www.w3.org/2000/svg" xmlns:xlink="http://www.w3.org/1999/xlink" x="0px" y="0px"
	 viewBox="0 0 415.36 415.36" style="enable-background:new 0 0 415.36 415.36;" xml:space="preserve">
<circle style="fill:#B7AE9F;" cx="60.684" cy="70.2" r="52.64"/>
<g>
	<path style="fill:#FFFFFF;" d="M113.324,70.2c-0.056-14.73-6.262-28.766-17.12-38.72l-15.44-13.92h185.6
		c29.054,0.044,52.596,23.586,52.64,52.64v221.84h-152.96c-14.77,0.054-28.842,6.292-38.8,17.2l-13.92,15.2L113.324,70.2z"/>
	<path style="fill:#FFFFFF;" d="M186.364,397.4l15.12-13.92c21.429-19.45,23.032-52.59,3.582-74.018
		c-1.135-1.251-2.331-2.446-3.582-3.582l-15.2-13.92h170.56c19.481,0.014,37.361,10.785,46.48,28l6.24,11.76h-0.8l0.8,7.12
		c0.11,1.945,0.11,3.895,0,5.84c-0.044,29.054-23.586,52.596-52.64,52.64L186.364,397.4z"/>
</g>
<circle style="fill:#B7AE9F;" cx="166.044" cy="344.76" r="52.64"/>
<g>
	<path style="fill:#3A302B;" d="M356.844,284.04h-29.84V70.2c-0.044-33.472-27.168-60.596-60.64-60.64H60.684
		C27.149,9.58-0.02,36.782,0,70.317C0.02,103.851,27.222,131.02,60.756,131c16.927-0.01,33.082-7.086,44.567-19.52v233.6
		c0,33.504,27.137,60.676,60.64,60.72h190.88c33.513-1.217,59.693-29.371,58.476-62.884c-1.155-31.805-26.671-57.321-58.476-58.476
		V284.04z M266.364,25.56c24.636,0.044,44.596,20.004,44.64,44.64v213.84h-144.96c-16.974-0.083-33.202,6.972-44.72,19.44V70.2
		c-0.022-16.995-7.194-33.197-19.76-44.64L266.364,25.56z M60.684,114.92c-24.698,0.044-44.756-19.942-44.8-44.64
		c-0.044-24.698,19.942-44.756,44.64-44.8c24.698-0.044,44.756,19.942,44.8,44.64c0,0.027,0,0.053,0,0.08
		C105.324,94.867,85.35,114.876,60.684,114.92z M166.044,389.4c-24.698,0.044-44.756-19.942-44.8-44.64
		c-0.044-24.698,19.942-44.756,44.64-44.8c24.698-0.044,44.756,19.942,44.8,44.64c0,0.027,0,0.053,0,0.08
		C210.684,369.347,190.71,389.356,166.044,389.4z M401.564,344.76c0,24.667-19.973,44.676-44.64,44.72h-150
		c24.676-22.447,26.483-60.647,4.037-85.323c-1.281-1.409-2.628-2.756-4.037-4.037h149.92c16.579,0.071,31.759,9.308,39.44,24h-49.2
		c-4.418,0-8,3.582-8,8s3.582,8,8,8h54.16C401.431,341.66,401.538,343.209,401.564,344.76L401.564,344.76z"/>
	<path style="fill:#3A302B;" d="M174.604,78.2h75.44c4.418,0,8-3.582,8-8s-3.582-8-8-8h-75.44c-4.418,0-8,3.582-8,8
		S170.185,78.2,174.604,78.2z"/>
	<path style="fill:#3A302B;" d="M141.404,119.48h146.4c4.418,0,8-3.582,8-8s-3.582-8-8-8h-146.4c-4.418,0-8,3.582-8,8
		S136.985,119.48,141.404,119.48L141.404,119.48z"/>
	<path style="fill:#3A302B;" d="M141.404,162.84h146.4c4.418,0,8-3.582,8-8s-3.582-8-8-8h-146.4c-4.418,0-8,3.582-8,8
		S136.985,162.84,141.404,162.84L141.404,162.84z"/>
	<path style="fill:#3A302B;" d="M141.404,206.52h146.4c4.418,0,8-3.582,8-8s-3.582-8-8-8h-146.4c-4.418,0-8,3.582-8,8
		S136.985,206.52,141.404,206.52L141.404,206.52z"/>
	<path style="fill:#3A302B;" d="M141.404,250.2h146.4c4.418,0,8-3.582,8-8s-3.582-8-8-8h-146.4c-4.418,0-8,3.582-8,8
		S136.985,250.2,141.404,250.2L141.404,250.2z"/>
</g>
<g>
</g>
<g>
</g>
<g>
</g>
<g>
</g>
<g>
</g>
<g>
</g>
<g>
</g>
<g>
</g>
<g>
</g>
<g>
</g>
<g>
</g>
<g>
</g>
<g>
</g>
<g>
</g>
<g>
</g>
</svg>
