<?xml version="1.0" encoding="iso-8859-1"?>
<!-- Generator: Adobe Illustrator 19.0.0, SVG Export Plug-In . SVG Version: 6.00 Build 0)  -->
<svg version="1.1" id="Capa_1" xmlns="http://www.w3.org/2000/svg" xmlns:xlink="http://www.w3.org/1999/xlink" x="0px" y="0px"
	 viewBox="0 0 512 512" style="enable-background:new 0 0 512 512;" xml:space="preserve">
<g>
	<path style="fill:#FF9B4B;" d="M192.402,62.817c16.252,61.249-46.877,98.125,3.75,150.308h27.715
		c0-21.218,14.385-38.42,32.135-38.42c17.744,0,32.133,17.202,32.133,38.42h43.018C353.65,110.931,291.15,28.751,253.65,10.001
		c17.5,62.808-9.998,125.94-9.998,125.94C244.277,83.441,214.277,73.444,192.402,62.817z"/>
	<path style="fill:#EE4A4D;" d="M256.003,174.704c-17.75,0-32.135,17.202-32.135,38.42h64.268
		C288.135,191.906,273.746,174.704,256.003,174.704z"/>
	<path style="fill:#F1DFC4;" d="M288.135,213.124h-64.268h-27.715h-55.719c4.242,14.036,10.971,26.994,19.672,38.36
		c22.061,28.812,56.805,47.393,95.896,47.393c54.508,0,100.57-36.133,115.565-85.753h-40.414L288.135,213.124L288.135,213.124z"/>
	<path style="fill:#FFBA50;" d="M296,298.877h-39.998h-40.002c-11.002,0-20,8.998-20,20.003c0,11.001,8.998,19.999,20,19.999h40.002
		H296c11.002,0,20-8.998,20-20.001C316,307.875,307.003,298.877,296,298.877z"/>
	<polygon style="fill:#F1DFC4;" points="296,338.879 256.003,338.879 216.001,338.879 225.378,461.999 286.625,461.999 	"/>
	<path style="fill:#FFBA50;" d="M286.625,461.999h-61.248h-9.377c-11.002,0-20,8.999-20,20.002c0,11.002,8.998,19.999,20,19.999h80
		c11.002,0,20-8.997,20-20.002c0-11-8.998-19.999-20-19.999H286.625z"/>
</g>
<g>
	<path style="fill:#000001;" d="M379.596,207.163c-1.887-2.541-4.865-4.039-8.029-4.039h-28.342
		c8.748-54.223-5.348-98.73-19.348-127.258c-16.563-33.754-42.373-63.119-65.756-74.81c-3.535-1.769-7.783-1.286-10.832,1.228
		c-3.051,2.516-4.334,6.592-3.271,10.4c8.086,29.023,5.863,58.467,1.539,80.836c-10.459-21.627-29.086-30.399-44.016-37.431
		c-1.621-0.765-3.217-1.515-4.77-2.269c-3.516-1.709-7.705-1.211-10.727,1.275c-3.018,2.486-4.311,6.504-3.307,10.283
		c6.117,23.06-0.67,42.874-7.232,62.036c-4.805,14.028-9.771,28.533-9.398,43.753c0.273,11.184,3.443,21.755,9.592,31.954h-35.266
		c-3.166,0-6.143,1.498-8.029,4.039c-1.887,2.541-2.459,5.824-1.543,8.854c4.434,14.671,11.539,28.51,20.775,40.769
		c0.361,0.575,0.777,1.111,1.244,1.601c7.059,9.076,15.287,17.259,24.498,24.204c6.43,4.85,13.221,9.03,20.283,12.568
		c-7.088,5.492-11.662,14.079-11.662,23.72c0,13.266,8.658,24.54,20.617,28.488l7.973,104.667
		c-15.89,0.744-28.589,13.899-28.589,29.97c0,16.541,13.457,29.999,30,29.999h80c16.543,0,30-13.458,30-30.002
		c0-16.067-12.699-29.223-28.588-29.963l7.971-104.667c11.959-3.949,20.617-15.224,20.617-28.49c0-9.64-4.574-18.226-11.66-23.718
		c7.063-3.538,13.852-7.719,20.283-12.568c22.047-16.626,38.566-40.27,46.516-66.575
		C382.054,212.987,381.48,209.704,379.596,207.163z M194.428,133.898c5.457-15.932,11.467-33.479,10.666-53.684
		c15.678,8.751,28.961,21.821,28.559,55.608c-0.057,4.759,3.248,8.898,7.902,9.896c4.652,1.001,9.365-1.421,11.266-5.784
		c1.025-2.357,21.957-51.348,15.434-107.119c12.834,11.878,26.74,29.593,37.67,51.861c12.959,26.41,26.008,67.921,17.01,118.447
		h-25.709c-4.02-21.916-20.975-38.42-41.223-38.42c-20.252,0-37.205,16.504-41.227,38.42h-14.256
		C179.014,178.955,185.527,159.887,194.428,133.898z M276.715,203.124h-41.43c3.158-10.751,11.252-18.42,20.717-18.42
		C265.465,184.704,273.556,192.373,276.715,203.124z M256.003,388.88c5.522,0,10-4.477,10-10v-30.001h19.209l-7.854,103.12h-42.715
		l-7.854-103.12h19.213v30.001C246.003,384.403,250.479,388.88,256.003,388.88z M306,482.001c0,5.514-4.486,9.999-10,9.999h-80
		c-5.514,0-10-4.485-10-10.002c0-5.514,4.486-9.999,10-9.999h9.355c0.004,0,0.006,0.001,0.01,0.001s0.01-0.001,0.014-0.001h61.244
		c0.004,0,0.01,0.001,0.014,0.001c0.002,0,0.006-0.001,0.01-0.001H296C301.513,471.999,306,476.485,306,482.001z M296,308.877
		c5.514,0,10,4.487,10,10.003c0,5.514-4.486,9.999-10,9.999h-80c-5.514,0-10-4.486-10-10.001s4.486-10.001,10-10.001L296,308.877
		L296,308.877z M256.003,288.877c-27.213,0-52.894-10.223-72.658-27.393h17.795c5.523,0,10-4.477,10-10c0-5.522-4.477-10-10-10
		h-35.861c-4.037-5.731-7.561-11.865-10.463-18.36h176.312c0.012,0,0.023,0.002,0.035,0.002c0.016,0,0.031-0.002,0.045-0.002h25.979
		C339.615,262.429,299.781,288.877,256.003,288.877z"/>
	<path style="fill:#000001;" d="M256.004,417.847c5.521,0,10-4.477,10-10v-0.238c0-5.522-4.479-10-10-10c-5.523,0-10,4.478-10,10
		v0.238C246.005,413.37,250.48,417.847,256.004,417.847z"/>
	<path style="fill:#000001;" d="M230.107,241.487h-0.236c-5.523,0-10,4.478-10,10c0,5.523,4.477,10,10,10h0.236
		c5.521,0,10-4.477,10-10S235.63,241.487,230.107,241.487z"/>
</g>
<g>
</g>
<g>
</g>
<g>
</g>
<g>
</g>
<g>
</g>
<g>
</g>
<g>
</g>
<g>
</g>
<g>
</g>
<g>
</g>
<g>
</g>
<g>
</g>
<g>
</g>
<g>
</g>
<g>
</g>
</svg>
